<svg width="44" height="44" viewBox="0 0 44 44" fill="none" xmlns="http://www.w3.org/2000/svg">
<path fill-rule="evenodd" clip-rule="evenodd" d="M22 13C20.3431 13 19 14.3431 19 16C19 17.6569 20.3431 19 22 19C23.6569 19 25 17.6569 25 16C25 14.3431 23.6569 13 22 13ZM17 16C17 13.2386 19.2386 11 22 11C24.7614 11 27 13.2386 27 16C27 18.7614 24.7614 21 22 21C19.2386 21 17 18.7614 17 16ZM15.7784 24.15C17.7739 23.2555 20.184 23 22 23C23.816 23 26.2261 23.2555 28.2216 24.15C30.2529 25.0606 32 26.722 32 29.5V30.5C32 31.8546 30.9048 33 29.5183 33H14.4817C13.0952 33 12 31.8546 12 30.5V29.5C12 26.722 13.7471 25.0606 15.7784 24.15ZM16.5966 25.975C15.0029 26.6894 14 27.778 14 29.5V30.5C14 30.7821 14.2316 31 14.4817 31H29.5183C29.7684 31 30 30.7821 30 30.5V29.5C30 27.778 28.9971 26.6894 27.4034 25.975C25.7739 25.2445 23.684 25 22 25C20.316 25 18.2261 25.2445 16.5966 25.975Z" fill="white"/>
<circle cx="22" cy="22" r="21" stroke="white" stroke-width="2"/>
</svg>
